<?xml version="1.0" encoding="UTF-8"?>
<svg width="14px" height="14px" viewBox="0 0 14 14" version="1.1" xmlns="http://www.w3.org/2000/svg" xmlns:xlink="http://www.w3.org/1999/xlink">
    <!-- Generator: Sketch 55.2 (78181) - https://sketchapp.com -->
    <title>icon</title>
    <desc>Created with Sketch.</desc>
    <g id="Page-1" stroke="none" stroke-width="1" fill="none" fill-rule="evenodd">
        <g id="click-collect" transform="translate(-113.000000, -238.000000)" fill="#FFFFFF">
            <g id="alert" transform="translate(51.000000, 215.000000)">
                <g id="alert-top">
                    <g id="icon" transform="translate(62.000000, 23.000000)">
                        <path d="M13.9991734,5.54885371 L10.6970278,8.85099935 C9.16493508,10.3830002 6.68100153,10.3830002 5.14900065,8.85099935 C3.61699978,7.31890663 3.61699978,4.83506492 5.14900065,3.30297221 L8.45114629,0.000826569621 C8.45234023,-0.000275523207 8.45417705,-0.000275523207 8.45527914,0.000826569621 L13.9991734,5.54472086 C14.0002755,5.54582295 14.0002755,5.54765977 13.9991734,5.54885371" id="Fill-1-Copy" transform="translate(9.000000, 5.000000) rotate(-180.000000) translate(-9.000000, -5.000000) "></path>
                        <path d="M9.99917343,9.54885371 L6.69702779,12.8509993 C5.16493508,14.3830002 2.68100153,14.3830002 1.14900065,12.8509993 C-0.383000218,11.3189066 -0.383000218,8.83506492 1.14900065,7.30297221 L4.45114629,4.00082657 C4.45234023,3.99972448 4.45417705,3.99972448 4.45527914,4.00082657 L9.99917343,9.54472086 C10.0002755,9.54582295 10.0002755,9.54765977 9.99917343,9.54885371" id="Fill-1" opacity="0.255975632"></path>
                    </g>
                </g>
            </g>
        </g>
    </g>
</svg>