<?xml version="1.0" encoding="UTF-8"?>
<svg width="76px" height="76px" viewBox="0 0 76 76" version="1.1" xmlns="http://www.w3.org/2000/svg" xmlns:xlink="http://www.w3.org/1999/xlink">
    <!-- Generator: Sketch 55.2 (78181) - https://sketchapp.com -->
    <title>change-user-icon</title>
    <desc>Created with Sketch.</desc>
    <defs>
        <filter x="-17.6%" y="-17.6%" width="135.3%" height="135.3%" filterUnits="objectBoundingBox" id="filter-1">
            <feOffset dx="0" dy="2" in="SourceAlpha" result="shadowOffsetOuter1"></feOffset>
            <feGaussianBlur stdDeviation="2" in="shadowOffsetOuter1" result="shadowBlurOuter1"></feGaussianBlur>
            <feColorMatrix values="0 0 0 0 0.488309556   0 0 0 0 0.488309556   0 0 0 0 0.488309556  0 0 0 0.5 0" type="matrix" in="shadowBlurOuter1" result="shadowMatrixOuter1"></feColorMatrix>
            <feMerge>
                <feMergeNode in="shadowMatrixOuter1"></feMergeNode>
                <feMergeNode in="SourceGraphic"></feMergeNode>
            </feMerge>
        </filter>
    </defs>
    <g id="Page-1" stroke="none" stroke-width="1" fill="none" fill-rule="evenodd">
        <g id="6.navbar-user-clicked" transform="translate(-288.000000, -1011.000000)">
            <g id="change-user-icon" filter="url(#filter-1)" transform="translate(292.000000, 1013.000000)">
                <circle id="Oval" fill="#00A2FF" cx="34" cy="34" r="34"></circle>
                <g id="Group" transform="translate(13.000000, 15.000000)" fill="#FFFFFF">
                    <g id="user-icon-copy" transform="translate(21.755102, 0.000000)">
                        <ellipse id="Oval" cx="9.62244898" cy="6.16666667" rx="6.2755102" ry="6.16666667"></ellipse>
                        <path d="M9.62244898,10.6888889 C4.30802709,10.6888889 0,14.5260051 0,19.2592152 C0,19.4183871 0.00557559447,19.576383 0.0152595217,19.7333333 L19.2296384,19.7333333 C19.2391756,19.576383 19.244898,19.4183871 19.244898,19.2592152 C19.244898,14.5260051 14.9368709,10.6888889 9.62244898,10.6888889 Z" id="Fill-1"></path>
                    </g>
                    <g id="user-icon-copy" transform="translate(0.000000, 17.266667)">
                        <ellipse id="Oval" cx="9.62244898" cy="6.16666667" rx="6.2755102" ry="6.16666667"></ellipse>
                        <path d="M9.62244898,10.6888889 C4.30802709,10.6888889 0,14.5260051 0,19.2592152 C0,19.4183871 0.00557559447,19.576383 0.0152595217,19.7333333 L19.2296384,19.7333333 C19.2391756,19.576383 19.244898,19.4183871 19.244898,19.2592152 C19.244898,14.5260051 14.9368709,10.6888889 9.62244898,10.6888889 Z" id="Fill-1"></path>
                    </g>
                    <path id="Path-5" d="M8.40099863,5.07977649 C4.7864667,6.53097799 3.01020408,9.19633028 3.01020408,13.1555556 L2.01020408,13.1555556 C2.01020408,8.69965845 4.11572795,5.63987718 8.26085843,4.06096177 L7.70077217,-0.0108472582 L17.2300298,3.22075435 L8.92719394,8.90519949 L8.40099863,5.07977649 Z" fill-rule="nonzero"></path>
                    <g id="arrow" transform="translate(23.428571, 23.022222)" fill-rule="nonzero">
                        <path d="M7.62688627,4.16693227 C3.07438115,5.48098678 0.836734694,8.32959998 0.836734694,12.7865409 L-1.33226763e-13,12.7865409 C-1.33226763e-13,7.9082656 2.53814125,4.73314431 7.53474053,3.33730678 L7.16406881,4.88498131e-14 L15.0587547,2.87526932 L7.98112819,7.35631501 L7.62688627,4.16693227 Z" id="Path-5" transform="translate(7.529377, 6.393270) rotate(-180.000000) translate(-7.529377, -6.393270) "></path>
                    </g>
                </g>
            </g>
        </g>
    </g>
</svg>