<svg xmlns="http://www.w3.org/2000/svg" width="10" height="10" viewBox="0 0 10 10">
    <g fill="none" fill-rule="evenodd">
        <path fill="#000" d="M.014 9.86a.215.215 0 0 0 .03.053c.007.008.012.017.02.024.007.007.015.013.024.019a.211.211 0 0 0 .052.03l.005.003c.004.002.008 0 .013.002a.207.207 0 0 0 .124 0l.005-.001.009-.003c.007-.003.015-.003.022-.006l3.008-.858A.203.203 0 0 0 3.4 9.07l.004-.003.002-.001h.001v-.002L9.51 2.973a.208.208 0 0 0 .04-.06c.278-.31.451-.714.451-1.163A1.75 1.75 0 0 0 8.249 0c-.47 0-.892.19-1.206.49l-.01.007-.065.064c-.009.01-.02.019-.029.03L.937 6.594l-.002.002-.001.001-.003.005a.205.205 0 0 0-.054.074L.02 9.683c-.003.007-.004.014-.006.022l-.003.009-.001.005a.216.216 0 0 0 0 .124l.001.013.003.004z" opacity=".599"/>
        <path fill="#FFF" d="M1.363 7l1.104.528c0 .01.533 1.11.533 1.11L1.73 9 1 8.27 1.363 7zM6.7.776L7.203.27 9.73 2.796l-.506.505z"/>
    </g>
</svg>
