<?xml version="1.0" encoding="UTF-8"?>
<svg width="20px" height="18px" viewBox="0 0 20 18" version="1.1" xmlns="http://www.w3.org/2000/svg" xmlns:xlink="http://www.w3.org/1999/xlink">
    <!-- Generator: Sketch 55.2 (78181) - https://sketchapp.com -->
    <title>Shape</title>
    <desc>Created with Sketch.</desc>
    <defs>
        <path d="M319.101409,169.358526 C319.679621,168.667037 320,167.803326 320,166.888889 C320,164.743915 318.234286,163 316.05,163 C314.744892,163 313.549624,163.6264 312.814227,164.657809 C312.415465,165.217081 311.584535,165.217081 311.185773,164.657809 C310.450376,163.6264 309.255108,163 307.95,163 C305.765714,163 304,164.743915 304,166.888889 C304,167.803326 304.320379,168.667037 304.844385,169.298775 C305.193723,169.719933 307.578997,172.145053 312.000208,176.574137 C316.348868,172.224722 318.715935,169.819518 319.101409,169.358526 Z M316.05,161 C319.333333,161 322,163.633746 322,166.888889 C322,168.277397 321.511667,169.593895 320.581494,170.701225 C319.961378,171.439445 317.338527,174.106112 312.71294,178.701225 C312.321119,179.099592 311.678881,179.099592 311.28706,178.701225 C306.5892,174.026444 303.94828,171.33986 303.364301,170.641474 C302.488333,169.593895 302,168.277397 302,166.888889 C302,163.633746 304.666667,161 307.95,161 C309.481873,161 310.917343,161.577915 312,162.574203 C313.082657,161.577915 314.518127,161 316.05,161 Z" id="path-1"></path>
    </defs>
    <g id="Page-1" stroke="none" stroke-width="1" fill="none" fill-rule="evenodd">
        <g id="Detail-med" transform="translate(-302.000000, -161.000000)">
            <mask id="mask-2" fill="white">
                <use xlink:href="#path-1"></use>
            </mask>
            <use id="Shape" fill="#F2B0B0" fill-rule="nonzero" xlink:href="#path-1"></use>
        </g>
    </g>
</svg>