<?xml version="1.0" encoding="UTF-8"?>
<svg width="16px" height="14px" viewBox="0 0 16 14" version="1.1" xmlns="http://www.w3.org/2000/svg" xmlns:xlink="http://www.w3.org/1999/xlink">
    <!-- Generator: Sketch 55.2 (78181) - https://sketchapp.com -->
    <title>heart</title>
    <desc>Created with Sketch.</desc>
    <defs>
        <path d="M11.24,0 C13.8666661,0 16,2.04846875 16,4.58024691 C16,5.66019748 15.6093339,6.6841409 14.8651949,7.54539758 C14.3691023,8.1195687 12.2708213,10.1936428 8.57035167,13.7676198 C8.25689519,14.0774601 7.74310481,14.0774601 7.42964833,13.7676198 C3.67135998,10.1316784 1.55862419,8.04211325 1.09144097,7.49892431 C0.390666148,6.6841409 0,5.66019748 0,4.58024691 C0,2.04846875 2.13333389,0 4.76,0 C5.98549843,0 7.1338745,0.44948976 8,1.22438026 C8.8661255,0.44948976 10.0145016,0 11.24,0 Z" id="path-1"></path>
    </defs>
    <g id="Page-1" stroke="none" stroke-width="1" fill="none" fill-rule="evenodd">
        <g id="Mypage" transform="translate(-103.000000, -431.000000)">
            <g id="heart" transform="translate(103.000000, 431.000000)">
                <mask id="mask-2" fill="white">
                    <use xlink:href="#path-1"></use>
                </mask>
                <use id="Shape" fill="#F2B0B0" fill-rule="nonzero" xlink:href="#path-1"></use>
            </g>
        </g>
    </g>
</svg>