<?xml version="1.0" encoding="UTF-8"?>
<svg width="20px" height="18px" viewBox="0 0 20 18" version="1.1" xmlns="http://www.w3.org/2000/svg" xmlns:xlink="http://www.w3.org/1999/xlink">
    <!-- Generator: Sketch 55.2 (78181) - https://sketchapp.com -->
    <title>like</title>
    <desc>Created with Sketch.</desc>
    <defs>
        <path d="M18,183 C18.5522847,183 19,183.447715 19,184 L19,194 C19,194.552285 18.5522847,195 18,195 C17.4477153,195 17,194.552285 17,194 L17,184 C17,183.447715 17.4477153,183 18,183 Z M29.5,182.052632 L34.125,182.052632 C35.6903203,182.052632 37,183.229046 37,184.736842 L37,185.706121 C37,186.332131 36.8540185,186.94994 36.572962,187.51788 L34.135499,192.443338 C33.3600249,194.010362 31.6645922,195 29.8125369,195 L22.875,195 C21.3096797,195 20,193.823586 20,192.315789 L20,183.750254 C20,183.015042 20.3214597,182.317938 20.8809315,181.815395 L25.4075819,177.749351 C25.9453902,177.266267 26.661036,177 27.4016504,177 L27.5625,177 C28.6100533,177 29.5,177.799391 29.5,178.842105 L29.5,182.052632 Z" id="path-1"></path>
    </defs>
    <g id="Page-1" stroke="none" stroke-width="1" fill="none" fill-rule="evenodd">
        <g id="Main-med" transform="translate(-47.000000, -791.000000)">
            <g id="content-copy" transform="translate(30.000000, 614.000000)">
                <mask id="mask-2" fill="white">
                    <use xlink:href="#path-1"></use>
                </mask>
                <use id="like" fill="#00A2FF" xlink:href="#path-1"></use>
            </g>
        </g>
    </g>
</svg>