<svg xmlns="http://www.w3.org/2000/svg" xmlns:xlink="http://www.w3.org/1999/xlink" width="20" height="18" viewBox="0 0 20 18">
    <defs>
        <path id="a" d="M319.101 169.359a3.832 3.832 0 0 0 .899-2.47c0-2.145-1.766-3.889-3.95-3.889-1.305 0-2.5.626-3.236 1.658a1 1 0 0 1-1.628 0A3.962 3.962 0 0 0 307.95 163c-2.184 0-3.95 1.744-3.95 3.889 0 .914.32 1.778.844 2.41.35.42 2.735 2.846 7.156 7.275 4.349-4.35 6.716-6.754 7.101-7.215zM316.05 161c3.283 0 5.95 2.634 5.95 5.889 0 1.388-.488 2.705-1.419 3.812-.62.738-3.242 3.405-7.868 8a1 1 0 0 1-1.426 0c-4.698-4.675-7.339-7.361-7.923-8.06A5.831 5.831 0 0 1 302 166.89c0-3.255 2.667-5.889 5.95-5.889a5.97 5.97 0 0 1 4.05 1.574 5.97 5.97 0 0 1 4.05-1.574z"/>
    </defs>
    <use fill="#F2B0B0" fill-rule="nonzero" transform="translate(-302 -161)" xlink:href="#a"/>
</svg>
