<?xml version="1.0" encoding="UTF-8"?>
<svg width="20px" height="18px" viewBox="0 0 20 18" version="1.1" xmlns="http://www.w3.org/2000/svg" xmlns:xlink="http://www.w3.org/1999/xlink">
    <!-- Generator: Sketch 55.2 (78181) - https://sketchapp.com -->
    <title>unlike</title>
    <desc>Created with Sketch.</desc>
    <defs>
        <path d="M108,189 C107.447715,189 107,188.552285 107,188 L107,178 C107,177.447715 107.447715,177 108,177 C108.552285,177 109,177.447715 109,178 L109,188 C109,188.552285 108.552285,189 108,189 Z M96.5,189.947368 L91.875,189.947368 C90.3096797,189.947368 89,188.770954 89,187.263158 L89,186.293879 C89,185.667869 89.1459815,185.05006 89.427038,184.48212 L91.864501,179.556662 C92.6399751,177.989638 94.3354078,177 96.1874631,177 L103.125,177 C104.69032,177 106,178.176414 106,179.684211 L106,188.249746 C106,188.984958 105.67854,189.682062 105.119069,190.184605 L100.592418,194.250649 C100.05461,194.733733 99.338964,195 98.5983496,195 L98.4375,195 C97.3899467,195 96.5,194.200609 96.5,193.157895 L96.5,189.947368 Z" id="path-1"></path>
    </defs>
    <g id="Page-1" stroke="none" stroke-width="1" fill="none" fill-rule="evenodd">
        <g id="Main-med" transform="translate(-119.000000, -791.000000)">
            <g id="content-copy" transform="translate(30.000000, 614.000000)">
                <mask id="mask-2" fill="white">
                    <use xlink:href="#path-1"></use>
                </mask>
                <use id="unlike" fill="#00A2FF" opacity="0.504882812" xlink:href="#path-1"></use>
            </g>
        </g>
    </g>
</svg>